# xmcd CD database file
#
# Track frame offsets:
#	150
#	16842
#	31747
#	50700
#	75592
#	91662
#	107780
#	122032
#	141830
#	166665
#
# Disc length: 2453 seconds
#
# Revision: 0
# Processed by: cddbd v1.5.1PL0 Copyright (c) Steve Scherf et al.
# Submitted via: CDex 1.51
#
DISCID=6f09930a
DTITLE=everset - crimson FILE
DYEAR=2004
DGENRE=Japanese Rock
TTITLE0=世直し侍
TTITLE1=陽の当たる場所へ
TTITLE2=round-stars
TTITLE3=虹
TTITLE4=雷音
TTITLE5=remember
TTITLE6=breathing feat.K.D.
TTITLE7=stand by me
TTITLE8=遺書 8.29 am2:10
TTITLE9=stay
EXTD=YEAR: 2004
EXTT0=
EXTT1=
EXTT2=
EXTT3=
EXTT4=
EXTT5=
EXTT6=
EXTT7=
EXTT8=
EXTT9=
PLAYORDER=
